<svg width="44" height="44" viewBox="0 0 44 44" fill="none" xmlns="http://www.w3.org/2000/svg">
<rect width="44" height="44" rx="5" fill="#EC7C26"/>
<path fill-rule="evenodd" clip-rule="evenodd" d="M6.41659 9.16602C5.93035 9.16602 5.46404 9.35917 5.12022 9.70299C4.77641 10.0468 4.58325 10.5131 4.58325 10.9993C4.58325 11.4856 4.77641 11.9519 5.12022 12.2957C5.46404 12.6395 5.93035 12.8327 6.41659 12.8327H37.5833C38.0695 12.8327 38.5358 12.6395 38.8796 12.2957C39.2234 11.9519 39.4166 11.4856 39.4166 10.9993C39.4166 10.5131 39.2234 10.0468 38.8796 9.70299C38.5358 9.35917 38.0695 9.16602 37.5833 9.16602H6.41659ZM4.58325 21.9993C4.58325 21.5131 4.77641 21.0468 5.12022 20.703C5.46404 20.3592 5.93035 20.166 6.41659 20.166H37.5833C38.0695 20.166 38.5358 20.3592 38.8796 20.703C39.2234 21.0468 39.4166 21.5131 39.4166 21.9993C39.4166 22.4856 39.2234 22.9519 38.8796 23.2957C38.5358 23.6395 38.0695 23.8327 37.5833 23.8327H6.41659C5.93035 23.8327 5.46404 23.6395 5.12022 23.2957C4.77641 22.9519 4.58325 22.4856 4.58325 21.9993ZM4.58325 33.0012C4.58325 32.515 4.77641 32.0486 5.12022 31.7048C5.46404 31.361 5.93035 31.1678 6.41659 31.1678H37.5833C38.0695 31.1678 38.5358 31.361 38.8796 31.7048C39.2234 32.0486 39.4166 32.515 39.4166 33.0012C39.4166 33.4874 39.2234 33.9537 38.8796 34.2975C38.5358 34.6414 38.0695 34.8345 37.5833 34.8345H6.41659C5.93035 34.8345 5.46404 34.6414 5.12022 34.2975C4.77641 33.9537 4.58325 33.4874 4.58325 33.0012Z" fill="white"/>
</svg>
