<svg width="20" height="25" viewBox="0 0 20 25" fill="none" xmlns="http://www.w3.org/2000/svg">
<path fill-rule="evenodd" clip-rule="evenodd" d="M11.0237 22.7497C13.3826 20.2624 19 13.9269 19 10C19 5.02944 14.9706 1 10 1C5.02944 1 1 5.02944 1 10C1 13.9269 6.61736 20.2624 8.97629 22.7497C9.53865 23.3427 10.4613 23.3427 11.0237 22.7497ZM9.75 13.5C11.8211 13.5 13.5 11.8211 13.5 9.75C13.5 7.67893 11.8211 6 9.75 6C7.67893 6 6 7.67893 6 9.75C6 11.8211 7.67893 13.5 9.75 13.5Z" fill="#B14000"/>
<path d="M11.0237 22.7497L11.6767 23.369L11.0237 22.7497ZM8.97629 22.7497L9.62932 22.1304H9.62932L8.97629 22.7497ZM18.1 10C18.1 10.7875 17.8121 11.778 17.2726 12.9125C16.7397 14.0334 15.9955 15.2242 15.1634 16.3926C13.4995 18.7287 11.538 20.8996 10.3707 22.1304L11.6767 23.369C12.8684 22.1125 14.895 19.872 16.6295 17.4368C17.4966 16.2195 18.3042 14.9347 18.8982 13.6855C19.4857 12.45 19.9 11.176 19.9 10H18.1ZM10 1.9C14.4735 1.9 18.1 5.52649 18.1 10H19.9C19.9 4.53238 15.4676 0.1 10 0.1V1.9ZM1.9 10C1.9 5.52649 5.52649 1.9 10 1.9V0.1C4.53238 0.1 0.1 4.53238 0.1 10H1.9ZM9.62932 22.1304C8.46205 20.8996 6.50054 18.7287 4.83661 16.3926C4.00446 15.2242 3.26034 14.0334 2.72736 12.9125C2.18787 11.778 1.9 10.7875 1.9 10H0.1C0.1 11.176 0.514299 12.45 1.10178 13.6855C1.69577 14.9347 2.50342 16.2195 3.37048 17.4368C5.10497 19.872 7.13159 22.1125 8.32325 23.369L9.62932 22.1304ZM10.3707 22.1304C10.1632 22.3491 9.83676 22.3491 9.62932 22.1304L8.32325 23.369C9.24055 24.3363 10.7595 24.3363 11.6767 23.369L10.3707 22.1304ZM12.6 9.75C12.6 11.324 11.324 12.6 9.75 12.6V14.4C12.3181 14.4 14.4 12.3181 14.4 9.75H12.6ZM9.75 6.9C11.324 6.9 12.6 8.17599 12.6 9.75H14.4C14.4 7.18188 12.3181 5.1 9.75 5.1V6.9ZM6.9 9.75C6.9 8.17599 8.17599 6.9 9.75 6.9V5.1C7.18188 5.1 5.1 7.18188 5.1 9.75H6.9ZM9.75 12.6C8.17599 12.6 6.9 11.324 6.9 9.75H5.1C5.1 12.3181 7.18188 14.4 9.75 14.4V12.6Z" fill="#EC7C26"/>
</svg>
