<svg width="36" height="44" viewBox="0 0 36 44" fill="none" xmlns="http://www.w3.org/2000/svg">
<path fill-rule="evenodd" clip-rule="evenodd" d="M2.89619 17.7891C2.89619 9.57704 9.64541 2.89961 17.9962 2.89961C26.347 2.89961 33.0962 9.57704 33.0962 17.7891C33.0962 19.4246 32.4536 21.421 31.3492 23.6127C30.2533 25.7875 28.7455 28.072 27.1117 30.2615C23.8448 34.6394 20.1333 38.559 18.3793 40.3444C18.1647 40.5628 17.8277 40.5628 17.6131 40.3444C15.859 38.559 12.1476 34.6394 8.8807 30.2615C7.24688 28.072 5.73904 25.7875 4.64316 23.6127C3.53879 21.421 2.89619 19.4246 2.89619 17.7891ZM17.9962 1.09961C8.67386 1.09961 1.09619 8.56053 1.09619 17.7891C1.09619 19.8409 1.88404 22.1372 3.0357 24.4227C4.19584 26.725 5.7696 29.1021 7.43809 31.338C10.7758 35.8108 14.5518 39.7969 16.3291 41.6058C17.2491 42.5423 18.7433 42.5423 19.6633 41.6058C21.4406 39.7968 25.2166 35.8108 28.5543 31.338C30.2228 29.1021 31.7965 26.725 32.9567 24.4227C34.1083 22.1372 34.8962 19.8409 34.8962 17.7891C34.8962 8.56053 27.3185 1.09961 17.9962 1.09961Z" fill="#B14000"/>
<path d="M31.3492 23.6127L32.153 24.0177L31.3492 23.6127ZM27.1117 30.2615L27.833 30.7998L27.1117 30.2615ZM18.3793 40.3444L17.7373 39.7136L17.7373 39.7136L18.3793 40.3444ZM17.6131 40.3444L16.9711 40.9751L16.9711 40.9751L17.6131 40.3444ZM8.8807 30.2615L9.60201 29.7232L8.8807 30.2615ZM4.64316 23.6127L5.44688 23.2077L4.64316 23.6127ZM3.0357 24.4227L3.83943 24.0177L3.0357 24.4227ZM7.43809 31.338L8.1594 30.7998L7.43809 31.338ZM16.3291 41.6058L15.6871 42.2366L16.3291 41.6058ZM19.6633 41.6058L19.0213 40.9751H19.0213L19.6633 41.6058ZM28.5543 31.338L27.833 30.7998L28.5543 31.338ZM32.9567 24.4227L33.7604 24.8277L32.9567 24.4227ZM17.9962 1.99961C9.15943 1.99961 1.99619 9.06899 1.99619 17.7891H3.79619C3.79619 10.0851 10.1314 3.79961 17.9962 3.79961V1.99961ZM33.9962 17.7891C33.9962 9.06899 26.833 1.99961 17.9962 1.99961V3.79961C25.861 3.79961 32.1962 10.0851 32.1962 17.7891H33.9962ZM32.153 24.0177C33.2809 21.7792 33.9962 19.6328 33.9962 17.7891H32.1962C32.1962 19.2164 31.6263 21.0629 30.5455 23.2077L32.153 24.0177ZM27.833 30.7998C29.4841 28.5871 31.0249 26.2563 32.153 24.0177L30.5455 23.2077C29.4818 25.3187 28.0069 27.557 26.3904 29.7232L27.833 30.7998ZM19.0213 40.9751C20.787 39.1779 24.5307 35.2251 27.833 30.7998L26.3904 29.7232C23.1589 34.0538 19.4797 37.9401 17.7373 39.7136L19.0213 40.9751ZM16.9711 40.9751C17.5384 41.5526 18.454 41.5526 19.0213 40.9751L17.7373 39.7136C17.7993 39.6505 17.8928 39.6082 17.9962 39.6082C18.0996 39.6082 18.193 39.6505 18.2551 39.7136L16.9711 40.9751ZM8.1594 30.7998C11.4617 35.2251 15.2054 39.1779 16.9711 40.9751L18.2551 39.7136C16.5127 37.9401 12.8335 34.0538 9.60201 29.7232L8.1594 30.7998ZM3.83943 24.0177C4.96744 26.2563 6.50825 28.5871 8.1594 30.7998L9.60201 29.7232C7.98551 27.557 6.51063 25.3187 5.44688 23.2077L3.83943 24.0177ZM1.99619 17.7891C1.99619 19.6328 2.71147 21.7792 3.83943 24.0177L5.44688 23.2077C4.36612 21.0629 3.79619 19.2164 3.79619 17.7891H1.99619ZM1.99619 17.7891C1.99619 9.06897 9.15945 1.99961 17.9962 1.99961V0.199609C8.18826 0.199609 0.196191 8.05209 0.196191 17.7891H1.99619ZM3.83943 24.0177C2.71146 21.7792 1.99619 19.6328 1.99619 17.7891H0.196191C0.196191 20.049 1.05662 22.4951 2.23197 24.8277L3.83943 24.0177ZM8.1594 30.7998C6.50825 28.5871 4.96744 26.2563 3.83943 24.0177L2.23197 24.8277C3.42424 27.1938 5.03096 29.6171 6.71678 31.8763L8.1594 30.7998ZM16.9711 40.9751C15.2054 39.1779 11.4617 35.2251 8.1594 30.7998L6.71678 31.8763C10.0899 36.3965 13.8982 40.4158 15.6871 42.2366L16.9711 40.9751ZM19.0213 40.9751C18.454 41.5526 17.5384 41.5526 16.9711 40.9751L15.6871 42.2366C16.9598 43.5321 19.0326 43.5321 20.3053 42.2366L19.0213 40.9751ZM27.833 30.7998C24.5307 35.2251 20.787 39.1779 19.0213 40.9751L20.3053 42.2366C22.0942 40.4158 25.9025 36.3965 29.2756 31.8763L27.833 30.7998ZM32.153 24.0177C31.0249 26.2563 29.4841 28.5871 27.833 30.7998L29.2756 31.8763C30.9614 29.6171 32.5681 27.1938 33.7604 24.8277L32.153 24.0177ZM33.9962 17.7891C33.9962 19.6328 33.2809 21.7792 32.153 24.0177L33.7604 24.8277C34.9358 22.4951 35.7962 20.049 35.7962 17.7891H33.9962ZM17.9962 1.99961C26.8329 1.99961 33.9962 9.06897 33.9962 17.7891H35.7962C35.7962 8.05209 27.8041 0.199609 17.9962 0.199609V1.99961Z" fill="#EC7C26"/>
<ellipse cx="17.5518" cy="17.5827" rx="6.66667" ry="6.67839" stroke="#EC7C26" stroke-width="3"/>
</svg>
