<svg width="36" height="43" viewBox="0 0 36 43" fill="none" xmlns="http://www.w3.org/2000/svg">
<path fill-rule="evenodd" clip-rule="evenodd" d="M19.0214 40.9755C22.5526 37.3812 33.9962 25.1643 33.9962 17.7894C33.9962 9.06918 26.8328 2 17.9962 2C9.15966 2 1.99622 9.06918 1.99622 17.7894C1.99622 25.1643 13.4398 37.3812 16.9711 40.9755C17.5384 41.553 18.454 41.553 19.0214 40.9755ZM17.5518 24.2611C21.2337 24.2611 24.2185 21.2711 24.2185 17.5827C24.2185 13.8943 21.2337 10.9043 17.5518 10.9043C13.8699 10.9043 10.8851 13.8943 10.8851 17.5827C10.8851 21.2711 13.8699 24.2611 17.5518 24.2611Z" fill="#B14000"/>
<path d="M19.0214 40.9755L19.6634 41.6062L19.6634 41.6062L19.0214 40.9755ZM16.9711 40.9755L16.3291 41.6062L16.3291 41.6062L16.9711 40.9755ZM33.0962 17.7894C33.0962 19.425 32.4536 21.4214 31.3493 23.6131C30.2534 25.7879 28.7455 28.0724 27.1117 30.2619C23.8448 34.6398 20.1334 38.5594 18.3793 40.3448L19.6634 41.6062C21.4406 39.7972 25.2166 35.8112 28.5543 31.3384C30.2228 29.1025 31.7966 26.7254 32.9567 24.4231C34.1084 22.1375 34.8962 19.8413 34.8962 17.7894H33.0962ZM17.9962 2.9C26.347 2.9 33.0962 9.57744 33.0962 17.7894H34.8962C34.8962 8.56092 27.3186 1.1 17.9962 1.1V2.9ZM2.89622 17.7894C2.89622 9.57744 9.64544 2.9 17.9962 2.9V1.1C8.67388 1.1 1.09622 8.56092 1.09622 17.7894H2.89622ZM17.6131 40.3448C15.8591 38.5594 12.1476 34.6398 8.88073 30.2619C7.2469 28.0724 5.73906 25.7879 4.64318 23.6131C3.53882 21.4214 2.89622 19.425 2.89622 17.7894H1.09622C1.09622 19.8413 1.88406 22.1375 3.03573 24.4231C4.19587 26.7254 5.76963 29.1025 7.43811 31.3384C10.7758 35.8112 14.5518 39.7972 16.3291 41.6062L17.6131 40.3448ZM18.3793 40.3448C18.1647 40.5632 17.8277 40.5632 17.6131 40.3448L16.3291 41.6062C17.2491 42.5427 18.7433 42.5427 19.6634 41.6062L18.3793 40.3448ZM23.3185 17.5827C23.3185 20.7755 20.7351 23.3611 17.5518 23.3611V25.1611C21.7322 25.1611 25.1185 21.7666 25.1185 17.5827H23.3185ZM17.5518 11.8043C20.7351 11.8043 23.3185 14.3899 23.3185 17.5827H25.1185C25.1185 13.3988 21.7322 10.0043 17.5518 10.0043V11.8043ZM11.7851 17.5827C11.7851 14.3899 14.3684 11.8043 17.5518 11.8043V10.0043C13.3713 10.0043 9.98512 13.3988 9.98512 17.5827H11.7851ZM17.5518 23.3611C14.3684 23.3611 11.7851 20.7755 11.7851 17.5827H9.98512C9.98512 21.7666 13.3713 25.1611 17.5518 25.1611V23.3611Z" fill="#EC7C26"/>
<ellipse cx="17.5518" cy="17.5827" rx="6.66667" ry="6.67839" stroke="#EC7C26" stroke-width="1.8"/>
</svg>
