<svg width="40" height="40" viewBox="0 0 40 40" fill="none" xmlns="http://www.w3.org/2000/svg">
<g clip-path="url(#clip0_174_4333)">
<circle cx="20" cy="20" r="19" fill="#EC7C26" stroke="white" stroke-width="2"/>
<path fill-rule="evenodd" clip-rule="evenodd" d="M25.9406 6H14.0594C9.6157 6 6 9.60123 6 14.0282V25.9718C6 30.3983 9.61525 34 14.0594 34H25.9406C30.3848 34 34 30.3983 34 25.9718V14.0282C34 9.60168 30.3848 6 25.9406 6ZM31.3328 25.9718C31.3328 28.9335 28.9137 31.3431 25.9406 31.3431H14.0594C11.0863 31.3431 8.66722 28.9335 8.66722 25.9718V14.0282C8.66722 11.0665 11.0863 8.65688 14.0594 8.65688H25.9406C28.9137 8.65688 31.3328 11.0665 31.3328 14.0282V25.9718ZM20.0222 12.7454C15.9925 12.7454 12.7134 15.9766 12.7134 19.9487C12.7134 23.9204 15.9921 27.1516 20.0222 27.1516C24.0519 27.1516 27.331 23.9204 27.331 19.9487C27.331 15.9766 24.0519 12.7454 20.0222 12.7454ZM20.0222 24.4997C17.4599 24.4997 15.3756 22.4578 15.3756 19.9487C15.3756 17.4392 17.4599 15.3977 20.0222 15.3977C22.5841 15.3977 24.6688 17.4392 24.6688 19.9487C24.6688 22.4582 22.5846 24.4997 20.0222 24.4997ZM29.1815 12.4511C29.1815 13.3971 28.4116 14.1641 27.4619 14.1641C26.5121 14.1641 25.7422 13.3971 25.7422 12.4511C25.7422 11.505 26.5121 10.7381 27.4619 10.7381C28.4116 10.7381 29.1815 11.505 29.1815 12.4511Z" fill="white"/>
</g>
<defs>
<clipPath id="clip0_174_4333">
<rect width="40" height="40" fill="white"/>
</clipPath>
</defs>
</svg>
