<svg width="100" height="100" viewBox="0 0 100 100" fill="none" xmlns="http://www.w3.org/2000/svg">
<g clip-path="url(#clip0_174_4355)">
<circle cx="50" cy="50" r="49" fill="#EC7C26" stroke="white" stroke-width="2"/>
<path fill-rule="evenodd" clip-rule="evenodd" d="M64.8515 15H35.1485C24.0392 15 15 24.0031 15 35.0704V64.9296C15 75.9958 24.0381 85 35.1485 85H64.8515C75.9619 85 85 75.9958 85 64.9296V35.0704C85 24.0042 75.9619 15 64.8515 15ZM78.3319 64.9296C78.3319 72.3338 72.2844 78.3578 64.8515 78.3578H35.1485C27.7156 78.3578 21.6681 72.3338 21.6681 64.9296V35.0704C21.6681 27.6663 27.7156 21.6422 35.1485 21.6422H64.8515C72.2844 21.6422 78.3319 27.6663 78.3319 35.0704V64.9296ZM50.0556 31.8634C39.9813 31.8634 31.7836 39.9415 31.7836 49.8718C31.7836 59.8009 39.9802 67.879 50.0556 67.879C60.1298 67.879 68.3275 59.8009 68.3275 49.8718C68.3275 39.9415 60.1298 31.8634 50.0556 31.8634ZM50.0556 61.2493C43.6497 61.2493 38.4391 56.1445 38.4391 49.8718C38.4391 43.5979 43.6497 38.4942 50.0556 38.4942C56.4603 38.4942 61.6721 43.5979 61.6721 49.8718C61.6721 56.1456 56.4614 61.2493 50.0556 61.2493ZM72.9538 31.1277C72.9538 33.4929 71.0291 35.4103 68.6547 35.4103C66.2803 35.4103 64.3555 33.4929 64.3555 31.1277C64.3555 28.7626 66.2803 26.8452 68.6547 26.8452C71.0291 26.8452 72.9538 28.7626 72.9538 31.1277Z" fill="white"/>
</g>
<defs>
<clipPath id="clip0_174_4355">
<rect width="100" height="100" fill="white"/>
</clipPath>
</defs>
</svg>
