<svg width="24" height="24" viewBox="0 0 24 24" fill="none" xmlns="http://www.w3.org/2000/svg">
<path fill-rule="evenodd" clip-rule="evenodd" d="M12.0001 1.79902C7.52659 1.79902 3.9001 5.42552 3.9001 9.89902C3.9001 10.6865 4.18797 11.677 4.72746 12.8116C5.26044 13.9324 6.00456 15.1233 6.8367 16.2916C8.50063 18.6277 10.4621 20.7986 11.6294 22.0294C11.8369 22.2482 12.1633 22.2482 12.3708 22.0294C13.538 20.7986 15.4996 18.6277 17.1635 16.2916C17.9956 15.1233 18.7398 13.9324 19.2727 12.8116C19.8122 11.677 20.1001 10.6865 20.1001 9.89902C20.1001 5.42552 16.4736 1.79902 12.0001 1.79902ZM2.1001 9.89902C2.1001 4.4314 6.53248 -0.000976562 12.0001 -0.000976562C17.4677 -0.000976562 21.9001 4.4314 21.9001 9.89902C21.9001 11.075 21.4858 12.349 20.8983 13.5845C20.3043 14.8337 19.4967 16.1185 18.6296 17.3358C16.8951 19.771 14.8685 22.0115 13.6768 23.268C12.7596 24.2353 11.2406 24.2353 10.3234 23.268C9.13169 22.0115 7.10506 19.771 5.37058 17.3358C4.50352 16.1185 3.69587 14.8337 3.10188 13.5845C2.5144 12.349 2.1001 11.075 2.1001 9.89902ZM12.0001 6.29902C10.4261 6.29902 9.1501 7.57501 9.1501 9.14902C9.1501 10.723 10.4261 11.999 12.0001 11.999C13.5741 11.999 14.8501 10.723 14.8501 9.14902C14.8501 7.57501 13.5741 6.29902 12.0001 6.29902ZM7.3501 9.14902C7.3501 6.5809 9.43197 4.49902 12.0001 4.49902C14.5682 4.49902 16.6501 6.5809 16.6501 9.14902C16.6501 11.7171 14.5682 13.799 12.0001 13.799C9.43197 13.799 7.3501 11.7171 7.3501 9.14902Z" fill="white"/>
<circle cx="12" cy="9.14941" r="3.75" stroke="white" stroke-width="1.5"/>
</svg>
