<svg width="36" height="44" viewBox="0 0 36 44" fill="none" xmlns="http://www.w3.org/2000/svg">
<path fill-rule="evenodd" clip-rule="evenodd" d="M2.89609 17.7894C2.89609 9.57744 9.64532 2.9 17.9961 2.9C26.3469 2.9 33.0961 9.57744 33.0961 17.7894C33.0961 19.425 32.4535 21.4214 31.3491 23.6131C30.2532 25.7879 28.7454 28.0724 27.1116 30.2619C23.8447 34.6398 20.1332 38.5594 18.3792 40.3448C18.1646 40.5632 17.8276 40.5632 17.613 40.3448C15.8589 38.5594 12.1475 34.6398 8.8806 30.2619C7.24678 28.0724 5.73894 25.7879 4.64306 23.6131C3.53869 21.4214 2.89609 19.425 2.89609 17.7894ZM17.9961 1.1C8.67376 1.1 1.09609 8.56092 1.09609 17.7894C1.09609 19.8413 1.88394 22.1375 3.0356 24.4231C4.19575 26.7254 5.76951 29.1025 7.43799 31.3384C10.7757 35.8112 14.5517 39.7972 16.329 41.6062C17.249 42.5427 18.7432 42.5427 19.6632 41.6062C21.4405 39.7972 25.2165 35.8112 28.5542 31.3384C30.2227 29.1025 31.7964 26.7254 32.9566 24.4231C34.1082 22.1375 34.8961 19.8413 34.8961 17.7894C34.8961 8.56092 27.3184 1.1 17.9961 1.1Z" fill="#B14000"/>
<path d="M31.3491 23.6131L32.1529 24.0181V24.0181L31.3491 23.6131ZM27.1116 30.2619L27.8329 30.8001L27.1116 30.2619ZM18.3792 40.3448L17.7372 39.714H17.7372L18.3792 40.3448ZM17.613 40.3448L16.971 40.9755L16.971 40.9755L17.613 40.3448ZM8.8806 30.2619L9.60191 29.7236L8.8806 30.2619ZM4.64306 23.6131L5.44679 23.2081V23.2081L4.64306 23.6131ZM3.0356 24.4231L3.83933 24.0181L3.0356 24.4231ZM7.43799 31.3384L8.1593 30.8001L7.43799 31.3384ZM16.329 41.6062L15.687 42.237L16.329 41.6062ZM19.6632 41.6062L19.0212 40.9755V40.9755L19.6632 41.6062ZM28.5542 31.3384L27.8329 30.8001L28.5542 31.3384ZM32.9566 24.4231L33.7603 24.8281V24.8281L32.9566 24.4231ZM17.9961 2C9.15933 2 1.99609 9.06938 1.99609 17.7894H3.79609C3.79609 10.0855 10.1313 3.8 17.9961 3.8V2ZM33.9961 17.7894C33.9961 9.06938 26.8329 2 17.9961 2V3.8C25.8609 3.8 32.1961 10.0855 32.1961 17.7894H33.9961ZM32.1529 24.0181C33.2808 21.7796 33.9961 19.6332 33.9961 17.7894H32.1961C32.1961 19.2168 31.6262 21.0633 30.5454 23.2081L32.1529 24.0181ZM27.8329 30.8001C29.484 28.5875 31.0248 26.2566 32.1529 24.0181L30.5454 23.2081C29.4817 25.3191 28.0068 27.5574 26.3903 29.7236L27.8329 30.8001ZM19.0212 40.9755C20.7869 39.1783 24.5306 35.2255 27.8329 30.8001L26.3903 29.7236C23.1588 34.0541 19.4796 37.9405 17.7372 39.714L19.0212 40.9755ZM16.971 40.9755C17.5383 41.553 18.4539 41.553 19.0212 40.9755L17.7372 39.714C17.7992 39.6509 17.8927 39.6086 17.9961 39.6086C18.0995 39.6086 18.1929 39.6509 18.255 39.714L16.971 40.9755ZM8.1593 30.8001C11.4616 35.2255 15.2053 39.1783 16.971 40.9755L18.255 39.714C16.5126 37.9405 12.8334 34.0541 9.60191 29.7236L8.1593 30.8001ZM3.83933 24.0181C4.96735 26.2566 6.50815 28.5875 8.1593 30.8001L9.60191 29.7236C7.98542 27.5574 6.51054 25.3191 5.44679 23.2081L3.83933 24.0181ZM1.99609 17.7894C1.99609 19.6332 2.71137 21.7796 3.83933 24.0181L5.44679 23.2081C4.36602 21.0633 3.79609 19.2168 3.79609 17.7894H1.99609ZM1.99609 17.7894C1.99609 9.06936 9.15935 2 17.9961 2V0.2C8.18816 0.2 0.196094 8.05248 0.196094 17.7894H1.99609ZM3.83933 24.0181C2.71136 21.7796 1.99609 19.6332 1.99609 17.7894H0.196094C0.196094 20.0493 1.05652 22.4955 2.23188 24.8281L3.83933 24.0181ZM8.1593 30.8001C6.50815 28.5875 4.96735 26.2566 3.83933 24.0181L2.23188 24.8281C3.42415 27.1942 5.03086 29.6175 6.71669 31.8767L8.1593 30.8001ZM16.971 40.9755C15.2053 39.1783 11.4616 35.2255 8.1593 30.8001L6.71669 31.8767C10.0898 36.3969 13.8981 40.4162 15.687 42.237L16.971 40.9755ZM19.0212 40.9755C18.4539 41.553 17.5383 41.553 16.971 40.9755L15.687 42.237C16.9597 43.5325 19.0325 43.5325 20.3052 42.237L19.0212 40.9755ZM27.8329 30.8001C24.5306 35.2255 20.7869 39.1783 19.0212 40.9755L20.3052 42.237C22.0941 40.4161 25.9024 36.3969 29.2755 31.8767L27.8329 30.8001ZM32.1529 24.0181C31.0248 26.2566 29.484 28.5875 27.8329 30.8001L29.2755 31.8767C30.9613 29.6175 32.568 27.1942 33.7603 24.8281L32.1529 24.0181ZM33.9961 17.7894C33.9961 19.6332 33.2808 21.7796 32.1529 24.0181L33.7603 24.8281C34.9357 22.4955 35.7961 20.0493 35.7961 17.7894H33.9961ZM17.9961 2C26.8328 2 33.9961 9.06936 33.9961 17.7894H35.7961C35.7961 8.05248 27.804 0.2 17.9961 0.2V2Z" fill="#EC7C26"/>
<ellipse cx="17.5517" cy="17.5827" rx="6.66667" ry="6.67839" stroke="#EC7C26" stroke-width="3"/>
</svg>
