<svg width="24" height="24" viewBox="0 0 24 24" fill="none" xmlns="http://www.w3.org/2000/svg">
<path fill-rule="evenodd" clip-rule="evenodd" d="M12 1.79902C7.52647 1.79902 3.89998 5.42552 3.89998 9.89902C3.89998 10.6865 4.18785 11.677 4.72734 12.8116C5.26032 13.9324 6.00444 15.1233 6.83658 16.2916C8.50051 18.6277 10.462 20.7986 11.6293 22.0294C11.8367 22.2482 12.1632 22.2482 12.3707 22.0294C13.5379 20.7986 15.4994 18.6277 17.1634 16.2916C17.9955 15.1233 18.7396 13.9324 19.2726 12.8116C19.8121 11.677 20.1 10.6865 20.1 9.89902C20.1 5.42552 16.4735 1.79902 12 1.79902ZM2.09998 9.89902C2.09998 4.4314 6.53236 -0.000976562 12 -0.000976562C17.4676 -0.000976562 21.9 4.4314 21.9 9.89902C21.9 11.075 21.4857 12.349 20.8982 13.5845C20.3042 14.8337 19.4966 16.1185 18.6295 17.3358C16.895 19.771 14.8684 22.0115 13.6767 23.268C12.7594 24.2353 11.2405 24.2353 10.3232 23.268C9.13157 22.0115 7.10494 19.771 5.37046 17.3358C4.5034 16.1185 3.69574 14.8337 3.10175 13.5845C2.51428 12.349 2.09998 11.075 2.09998 9.89902ZM12 6.29902C10.426 6.29902 9.14998 7.57501 9.14998 9.14902C9.14998 10.723 10.426 11.999 12 11.999C13.574 11.999 14.85 10.723 14.85 9.14902C14.85 7.57501 13.574 6.29902 12 6.29902ZM7.34998 9.14902C7.34998 6.5809 9.43185 4.49902 12 4.49902C14.5681 4.49902 16.65 6.5809 16.65 9.14902C16.65 11.7171 14.5681 13.799 12 13.799C9.43185 13.799 7.34998 11.7171 7.34998 9.14902Z" fill="white"/>
<circle cx="12" cy="9.14941" r="3.75" stroke="white" stroke-width="1.5"/>
</svg>
