<svg width="100" height="100" viewBox="0 0 100 100" fill="none" xmlns="http://www.w3.org/2000/svg">
<g clip-path="url(#clip0_174_3053)">
<path d="M100 0H0V100H100V0Z" fill="white"/>
<path d="M33.3333 6.06055H30.303V9.09085H33.3333V6.06055Z" fill="#0D0100"/>
<path d="M36.3636 6.06055H33.3333V9.09085H36.3636V6.06055Z" fill="#0D0100"/>
<path d="M39.394 6.06055H36.3636V9.09085H39.394V6.06055Z" fill="#0D0100"/>
<path d="M48.4849 6.06055H45.4546V9.09085H48.4849V6.06055Z" fill="#0D0100"/>
<path d="M51.5152 6.06055H48.4849V9.09085H51.5152V6.06055Z" fill="#0D0100"/>
<path d="M54.5455 6.06055H51.5152V9.09085H54.5455V6.06055Z" fill="#0D0100"/>
<path d="M63.6364 6.06055H60.606V9.09085H63.6364V6.06055Z" fill="#0D0100"/>
<path d="M33.3333 9.09082H30.303V12.1211H33.3333V9.09082Z" fill="#0D0100"/>
<path d="M36.3636 9.09082H33.3333V12.1211H36.3636V9.09082Z" fill="#0D0100"/>
<path d="M39.394 9.09082H36.3636V12.1211H39.394V9.09082Z" fill="#0D0100"/>
<path d="M42.4243 9.09082H39.394V12.1211H42.4243V9.09082Z" fill="#0D0100"/>
<path d="M45.4546 9.09082H42.4243V12.1211H45.4546V9.09082Z" fill="#0D0100"/>
<path d="M48.4849 9.09082H45.4546V12.1211H48.4849V9.09082Z" fill="#0D0100"/>
<path d="M51.5152 9.09082H48.4849V12.1211H51.5152V9.09082Z" fill="#0D0100"/>
<path d="M54.5455 9.09082H51.5152V12.1211H54.5455V9.09082Z" fill="#0D0100"/>
<path d="M60.606 9.09082H57.5757V12.1211H60.606V9.09082Z" fill="#0D0100"/>
<path d="M63.6364 9.09082H60.606V12.1211H63.6364V9.09082Z" fill="#0D0100"/>
<path d="M66.6667 9.09082H63.6364V12.1211H66.6667V9.09082Z" fill="#0D0100"/>
<path d="M69.697 9.09082H66.6667V12.1211H69.697V9.09082Z" fill="#0D0100"/>
<path d="M33.3333 12.1211H30.303V15.1514H33.3333V12.1211Z" fill="#0D0100"/>
<path d="M36.3636 12.1211H33.3333V15.1514H36.3636V12.1211Z" fill="#0D0100"/>
<path d="M39.394 12.1211H36.3636V15.1514H39.394V12.1211Z" fill="#0D0100"/>
<path d="M42.4243 12.1211H39.394V15.1514H42.4243V12.1211Z" fill="#0D0100"/>
<path d="M48.4849 12.1211H45.4546V15.1514H48.4849V12.1211Z" fill="#0D0100"/>
<path d="M51.5152 12.1211H48.4849V15.1514H51.5152V12.1211Z" fill="#0D0100"/>
<path d="M69.697 12.1211H66.6667V15.1514H69.697V12.1211Z" fill="#0D0100"/>
<path d="M36.3636 15.1514H33.3333V18.1817H36.3636V15.1514Z" fill="#0D0100"/>
<path d="M39.394 15.1514H36.3636V18.1817H39.394V15.1514Z" fill="#0D0100"/>
<path d="M42.4243 15.1514H39.394V18.1817H42.4243V15.1514Z" fill="#0D0100"/>
<path d="M45.4546 15.1514H42.4243V18.1817H45.4546V15.1514Z" fill="#0D0100"/>
<path d="M51.5152 15.1514H48.4849V18.1817H51.5152V15.1514Z" fill="#0D0100"/>
<path d="M54.5455 15.1514H51.5152V18.1817H54.5455V15.1514Z" fill="#0D0100"/>
<path d="M60.606 15.1514H57.5757V18.1817H60.606V15.1514Z" fill="#0D0100"/>
<path d="M66.6667 15.1514H63.6364V18.1817H66.6667V15.1514Z" fill="#0D0100"/>
<path d="M69.697 15.1514H66.6667V18.1817H69.697V15.1514Z" fill="#0D0100"/>
<path d="M33.3333 18.1816H30.303V21.2119H33.3333V18.1816Z" fill="#0D0100"/>
<path d="M36.3636 18.1816H33.3333V21.2119H36.3636V18.1816Z" fill="#0D0100"/>
<path d="M39.394 18.1816H36.3636V21.2119H39.394V18.1816Z" fill="#0D0100"/>
<path d="M45.4546 18.1816H42.4243V21.2119H45.4546V18.1816Z" fill="#0D0100"/>
<path d="M48.4849 18.1816H45.4546V21.2119H48.4849V18.1816Z" fill="#0D0100"/>
<path d="M54.5455 18.1816H51.5152V21.2119H54.5455V18.1816Z" fill="#0D0100"/>
<path d="M60.606 18.1816H57.5757V21.2119H60.606V18.1816Z" fill="#0D0100"/>
<path d="M63.6364 18.1816H60.606V21.2119H63.6364V18.1816Z" fill="#0D0100"/>
<path d="M66.6667 18.1816H63.6364V21.2119H66.6667V18.1816Z" fill="#0D0100"/>
<path d="M36.3636 21.2119H33.3333V24.2422H36.3636V21.2119Z" fill="#0D0100"/>
<path d="M48.4849 21.2119H45.4546V24.2422H48.4849V21.2119Z" fill="#0D0100"/>
<path d="M51.5152 21.2119H48.4849V24.2422H51.5152V21.2119Z" fill="#0D0100"/>
<path d="M60.606 21.2119H57.5757V24.2422H60.606V21.2119Z" fill="#0D0100"/>
<path d="M69.697 21.2119H66.6667V24.2422H69.697V21.2119Z" fill="#0D0100"/>
<path d="M33.3333 24.2422H30.303V27.2725H33.3333V24.2422Z" fill="#0D0100"/>
<path d="M39.394 24.2422H36.3636V27.2725H39.394V24.2422Z" fill="#0D0100"/>
<path d="M45.4546 24.2422H42.4243V27.2725H45.4546V24.2422Z" fill="#0D0100"/>
<path d="M51.5152 24.2422H48.4849V27.2725H51.5152V24.2422Z" fill="#0D0100"/>
<path d="M57.5758 24.2422H54.5455V27.2725H57.5758V24.2422Z" fill="#0D0100"/>
<path d="M63.6364 24.2422H60.606V27.2725H63.6364V24.2422Z" fill="#0D0100"/>
<path d="M69.697 24.2422H66.6667V27.2725H69.697V24.2422Z" fill="#0D0100"/>
<path d="M36.3636 27.2725H33.3333V30.3028H36.3636V27.2725Z" fill="#0D0100"/>
<path d="M45.4546 27.2725H42.4243V30.3028H45.4546V27.2725Z" fill="#0D0100"/>
<path d="M51.5152 27.2725H48.4849V30.3028H51.5152V27.2725Z" fill="#0D0100"/>
<path d="M9.09091 30.3027H6.06061V33.333H9.09091V30.3027Z" fill="#0D0100"/>
<path d="M18.1818 30.3027H15.1515V33.333H18.1818V30.3027Z" fill="#0D0100"/>
<path d="M21.2121 30.3027H18.1818V33.333H21.2121V30.3027Z" fill="#0D0100"/>
<path d="M24.2424 30.3027H21.2121V33.333H24.2424V30.3027Z" fill="#0D0100"/>
<path d="M27.2727 30.3027H24.2424V33.333H27.2727V30.3027Z" fill="#0D0100"/>
<path d="M30.303 30.3027H27.2727V33.333H30.303V30.3027Z" fill="#0D0100"/>
<path d="M33.3333 30.3027H30.303V33.333H33.3333V30.3027Z" fill="#0D0100"/>
<path d="M36.3636 30.3027H33.3333V33.333H36.3636V30.3027Z" fill="#0D0100"/>
<path d="M45.4546 30.3027H42.4243V33.333H45.4546V30.3027Z" fill="#0D0100"/>
<path d="M48.4849 30.3027H45.4546V33.333H48.4849V30.3027Z" fill="#0D0100"/>
<path d="M51.5152 30.3027H48.4849V33.333H51.5152V30.3027Z" fill="#0D0100"/>
<path d="M54.5455 30.3027H51.5152V33.333H54.5455V30.3027Z" fill="#0D0100"/>
<path d="M57.5758 30.3027H54.5455V33.333H57.5758V30.3027Z" fill="#0D0100"/>
<path d="M60.606 30.3027H57.5757V33.333H60.606V30.3027Z" fill="#0D0100"/>
<path d="M72.7273 30.3027H69.697V33.333H72.7273V30.3027Z" fill="#0D0100"/>
<path d="M81.8182 30.3027H78.7879V33.333H81.8182V30.3027Z" fill="#0D0100"/>
<path d="M87.8788 30.3027H84.8485V33.333H87.8788V30.3027Z" fill="#0D0100"/>
<path d="M90.9091 30.3027H87.8788V33.333H90.9091V30.3027Z" fill="#0D0100"/>
<path d="M93.9394 30.3027H90.9091V33.333H93.9394V30.3027Z" fill="#0D0100"/>
<path d="M9.09091 33.333H6.06061V36.3633H9.09091V33.333Z" fill="#0D0100"/>
<path d="M15.1515 33.333H12.1212V36.3633H15.1515V33.333Z" fill="#0D0100"/>
<path d="M33.3333 33.333H30.303V36.3633H33.3333V33.333Z" fill="#0D0100"/>
<path d="M45.4546 33.333H42.4243V36.3633H45.4546V33.333Z" fill="#0D0100"/>
<path d="M51.5152 33.333H48.4849V36.3633H51.5152V33.333Z" fill="#0D0100"/>
<path d="M60.606 33.333H57.5757V36.3633H60.606V33.333Z" fill="#0D0100"/>
<path d="M66.6667 33.333H63.6364V36.3633H66.6667V33.333Z" fill="#0D0100"/>
<path d="M72.7273 33.333H69.697V36.3633H72.7273V33.333Z" fill="#0D0100"/>
<path d="M78.7879 33.333H75.7576V36.3633H78.7879V33.333Z" fill="#0D0100"/>
<path d="M81.8182 33.333H78.7879V36.3633H81.8182V33.333Z" fill="#0D0100"/>
<path d="M87.8788 33.333H84.8485V36.3633H87.8788V33.333Z" fill="#0D0100"/>
<path d="M90.9091 33.333H87.8788V36.3633H90.9091V33.333Z" fill="#0D0100"/>
<path d="M12.1212 36.3633H9.09091V39.3936H12.1212V36.3633Z" fill="#0D0100"/>
<path d="M15.1515 36.3633H12.1212V39.3936H15.1515V36.3633Z" fill="#0D0100"/>
<path d="M21.2121 36.3633H18.1818V39.3936H21.2121V36.3633Z" fill="#0D0100"/>
<path d="M24.2424 36.3633H21.2121V39.3936H24.2424V36.3633Z" fill="#0D0100"/>
<path d="M27.2727 36.3633H24.2424V39.3936H27.2727V36.3633Z" fill="#0D0100"/>
<path d="M36.3636 36.3633H33.3333V39.3936H36.3636V36.3633Z" fill="#0D0100"/>
<path d="M39.394 36.3633H36.3636V39.3936H39.394V36.3633Z" fill="#0D0100"/>
<path d="M51.5152 36.3633H48.4849V39.3936H51.5152V36.3633Z" fill="#0D0100"/>
<path d="M60.606 36.3633H57.5757V39.3936H60.606V36.3633Z" fill="#0D0100"/>
<path d="M63.6364 36.3633H60.606V39.3936H63.6364V36.3633Z" fill="#0D0100"/>
<path d="M72.7273 36.3633H69.697V39.3936H72.7273V36.3633Z" fill="#0D0100"/>
<path d="M78.7879 36.3633H75.7576V39.3936H78.7879V36.3633Z" fill="#0D0100"/>
<path d="M87.8788 36.3633H84.8485V39.3936H87.8788V36.3633Z" fill="#0D0100"/>
<path d="M18.1818 39.3936H15.1515V42.4239H18.1818V39.3936Z" fill="#0D0100"/>
<path d="M21.2121 39.3936H18.1818V42.4239H21.2121V39.3936Z" fill="#0D0100"/>
<path d="M33.3333 39.3936H30.303V42.4239H33.3333V39.3936Z" fill="#0D0100"/>
<path d="M36.3636 39.3936H33.3333V42.4239H36.3636V39.3936Z" fill="#0D0100"/>
<path d="M39.394 39.3936H36.3636V42.4239H39.394V39.3936Z" fill="#0D0100"/>
<path d="M51.5152 39.3936H48.4849V42.4239H51.5152V39.3936Z" fill="#0D0100"/>
<path d="M54.5455 39.3936H51.5152V42.4239H54.5455V39.3936Z" fill="#0D0100"/>
<path d="M60.606 39.3936H57.5757V42.4239H60.606V39.3936Z" fill="#0D0100"/>
<path d="M69.697 39.3936H66.6667V42.4239H69.697V39.3936Z" fill="#0D0100"/>
<path d="M72.7273 39.3936H69.697V42.4239H72.7273V39.3936Z" fill="#0D0100"/>
<path d="M75.7576 39.3936H72.7273V42.4239H75.7576V39.3936Z" fill="#0D0100"/>
<path d="M84.8485 39.3936H81.8182V42.4239H84.8485V39.3936Z" fill="#0D0100"/>
<path d="M93.9394 39.3936H90.9091V42.4239H93.9394V39.3936Z" fill="#0D0100"/>
<path d="M9.09091 42.4238H6.06061V45.4541H9.09091V42.4238Z" fill="#0D0100"/>
<path d="M12.1212 42.4238H9.09091V45.4541H12.1212V42.4238Z" fill="#0D0100"/>
<path d="M15.1515 42.4238H12.1212V45.4541H15.1515V42.4238Z" fill="#0D0100"/>
<path d="M18.1818 42.4238H15.1515V45.4541H18.1818V42.4238Z" fill="#0D0100"/>
<path d="M27.2727 42.4238H24.2424V45.4541H27.2727V42.4238Z" fill="#0D0100"/>
<path d="M39.394 42.4238H36.3636V45.4541H39.394V42.4238Z" fill="#0D0100"/>
<path d="M45.4546 42.4238H42.4243V45.4541H45.4546V42.4238Z" fill="#0D0100"/>
<path d="M48.4849 42.4238H45.4546V45.4541H48.4849V42.4238Z" fill="#0D0100"/>
<path d="M51.5152 42.4238H48.4849V45.4541H51.5152V42.4238Z" fill="#0D0100"/>
<path d="M63.6364 42.4238H60.606V45.4541H63.6364V42.4238Z" fill="#0D0100"/>
<path d="M69.697 42.4238H66.6667V45.4541H69.697V42.4238Z" fill="#0D0100"/>
<path d="M75.7576 42.4238H72.7273V45.4541H75.7576V42.4238Z" fill="#0D0100"/>
<path d="M78.7879 42.4238H75.7576V45.4541H78.7879V42.4238Z" fill="#0D0100"/>
<path d="M93.9394 42.4238H90.9091V45.4541H93.9394V42.4238Z" fill="#0D0100"/>
<path d="M15.1515 45.4541H12.1212V48.4844H15.1515V45.4541Z" fill="#0D0100"/>
<path d="M42.4243 45.4541H39.394V48.4844H42.4243V45.4541Z" fill="#0D0100"/>
<path d="M45.4546 45.4541H42.4243V48.4844H45.4546V45.4541Z" fill="#0D0100"/>
<path d="M60.606 45.4541H57.5757V48.4844H60.606V45.4541Z" fill="#0D0100"/>
<path d="M63.6364 45.4541H60.606V48.4844H63.6364V45.4541Z" fill="#0D0100"/>
<path d="M72.7273 45.4541H69.697V48.4844H72.7273V45.4541Z" fill="#0D0100"/>
<path d="M75.7576 45.4541H72.7273V48.4844H75.7576V45.4541Z" fill="#0D0100"/>
<path d="M81.8182 45.4541H78.7879V48.4844H81.8182V45.4541Z" fill="#0D0100"/>
<path d="M84.8485 45.4541H81.8182V48.4844H84.8485V45.4541Z" fill="#0D0100"/>
<path d="M87.8788 45.4541H84.8485V48.4844H87.8788V45.4541Z" fill="#0D0100"/>
<path d="M90.9091 45.4541H87.8788V48.4844H90.9091V45.4541Z" fill="#0D0100"/>
<path d="M93.9394 45.4541H90.9091V48.4844H93.9394V45.4541Z" fill="#0D0100"/>
<path d="M12.1212 48.4844H9.09091V51.5147H12.1212V48.4844Z" fill="#0D0100"/>
<path d="M24.2424 48.4844H21.2121V51.5147H24.2424V48.4844Z" fill="#0D0100"/>
<path d="M27.2727 48.4844H24.2424V51.5147H27.2727V48.4844Z" fill="#0D0100"/>
<path d="M30.303 48.4844H27.2727V51.5147H30.303V48.4844Z" fill="#0D0100"/>
<path d="M33.3333 48.4844H30.303V51.5147H33.3333V48.4844Z" fill="#0D0100"/>
<path d="M39.394 48.4844H36.3636V51.5147H39.394V48.4844Z" fill="#0D0100"/>
<path d="M51.5152 48.4844H48.4849V51.5147H51.5152V48.4844Z" fill="#0D0100"/>
<path d="M54.5455 48.4844H51.5152V51.5147H54.5455V48.4844Z" fill="#0D0100"/>
<path d="M60.606 48.4844H57.5757V51.5147H60.606V48.4844Z" fill="#0D0100"/>
<path d="M66.6667 48.4844H63.6364V51.5147H66.6667V48.4844Z" fill="#0D0100"/>
<path d="M69.697 48.4844H66.6667V51.5147H69.697V48.4844Z" fill="#0D0100"/>
<path d="M72.7273 48.4844H69.697V51.5147H72.7273V48.4844Z" fill="#0D0100"/>
<path d="M75.7576 48.4844H72.7273V51.5147H75.7576V48.4844Z" fill="#0D0100"/>
<path d="M78.7879 48.4844H75.7576V51.5147H78.7879V48.4844Z" fill="#0D0100"/>
<path d="M87.8788 48.4844H84.8485V51.5147H87.8788V48.4844Z" fill="#0D0100"/>
<path d="M93.9394 48.4844H90.9091V51.5147H93.9394V48.4844Z" fill="#0D0100"/>
<path d="M9.09091 51.5146H6.06061V54.545H9.09091V51.5146Z" fill="#0D0100"/>
<path d="M12.1212 51.5146H9.09091V54.545H12.1212V51.5146Z" fill="#0D0100"/>
<path d="M21.2121 51.5146H18.1818V54.545H21.2121V51.5146Z" fill="#0D0100"/>
<path d="M30.303 51.5146H27.2727V54.545H30.303V51.5146Z" fill="#0D0100"/>
<path d="M36.3636 51.5146H33.3333V54.545H36.3636V51.5146Z" fill="#0D0100"/>
<path d="M39.394 51.5146H36.3636V54.545H39.394V51.5146Z" fill="#0D0100"/>
<path d="M48.4849 51.5146H45.4546V54.545H48.4849V51.5146Z" fill="#0D0100"/>
<path d="M51.5152 51.5146H48.4849V54.545H51.5152V51.5146Z" fill="#0D0100"/>
<path d="M57.5758 51.5146H54.5455V54.545H57.5758V51.5146Z" fill="#0D0100"/>
<path d="M63.6364 51.5146H60.606V54.545H63.6364V51.5146Z" fill="#0D0100"/>
<path d="M78.7879 51.5146H75.7576V54.545H78.7879V51.5146Z" fill="#0D0100"/>
<path d="M81.8182 51.5146H78.7879V54.545H81.8182V51.5146Z" fill="#0D0100"/>
<path d="M87.8788 51.5146H84.8485V54.545H87.8788V51.5146Z" fill="#0D0100"/>
<path d="M93.9394 51.5146H90.9091V54.545H93.9394V51.5146Z" fill="#0D0100"/>
<path d="M21.2121 54.5449H18.1818V57.5752H21.2121V54.5449Z" fill="#0D0100"/>
<path d="M27.2727 54.5449H24.2424V57.5752H27.2727V54.5449Z" fill="#0D0100"/>
<path d="M45.4546 54.5449H42.4243V57.5752H45.4546V54.5449Z" fill="#0D0100"/>
<path d="M54.5455 54.5449H51.5152V57.5752H54.5455V54.5449Z" fill="#0D0100"/>
<path d="M66.6667 54.5449H63.6364V57.5752H66.6667V54.5449Z" fill="#0D0100"/>
<path d="M69.697 54.5449H66.6667V57.5752H69.697V54.5449Z" fill="#0D0100"/>
<path d="M84.8485 54.5449H81.8182V57.5752H84.8485V54.5449Z" fill="#0D0100"/>
<path d="M9.09091 57.5762H6.06061V60.6065H9.09091V57.5762Z" fill="#0D0100"/>
<path d="M18.1818 57.5762H15.1515V60.6065H18.1818V57.5762Z" fill="#0D0100"/>
<path d="M33.3333 57.5762H30.303V60.6065H33.3333V57.5762Z" fill="#0D0100"/>
<path d="M36.3636 57.5762H33.3333V60.6065H36.3636V57.5762Z" fill="#0D0100"/>
<path d="M60.606 57.5762H57.5757V60.6065H60.606V57.5762Z" fill="#0D0100"/>
<path d="M63.6364 57.5762H60.606V60.6065H63.6364V57.5762Z" fill="#0D0100"/>
<path d="M66.6667 57.5762H63.6364V60.6065H66.6667V57.5762Z" fill="#0D0100"/>
<path d="M81.8182 57.5762H78.7879V60.6065H81.8182V57.5762Z" fill="#0D0100"/>
<path d="M87.8788 57.5762H84.8485V60.6065H87.8788V57.5762Z" fill="#0D0100"/>
<path d="M90.9091 57.5762H87.8788V60.6065H90.9091V57.5762Z" fill="#0D0100"/>
<path d="M9.09091 60.6064H6.06061V63.6367H9.09091V60.6064Z" fill="#0D0100"/>
<path d="M12.1212 60.6064H9.09091V63.6367H12.1212V60.6064Z" fill="#0D0100"/>
<path d="M15.1515 60.6064H12.1212V63.6367H15.1515V60.6064Z" fill="#0D0100"/>
<path d="M27.2727 60.6064H24.2424V63.6367H27.2727V60.6064Z" fill="#0D0100"/>
<path d="M30.303 60.6064H27.2727V63.6367H30.303V60.6064Z" fill="#0D0100"/>
<path d="M36.3636 60.6064H33.3333V63.6367H36.3636V60.6064Z" fill="#0D0100"/>
<path d="M39.394 60.6064H36.3636V63.6367H39.394V60.6064Z" fill="#0D0100"/>
<path d="M48.4849 60.6064H45.4546V63.6367H48.4849V60.6064Z" fill="#0D0100"/>
<path d="M51.5152 60.6064H48.4849V63.6367H51.5152V60.6064Z" fill="#0D0100"/>
<path d="M57.5758 60.6064H54.5455V63.6367H57.5758V60.6064Z" fill="#0D0100"/>
<path d="M63.6364 60.6064H60.606V63.6367H63.6364V60.6064Z" fill="#0D0100"/>
<path d="M66.6667 60.6064H63.6364V63.6367H66.6667V60.6064Z" fill="#0D0100"/>
<path d="M72.7273 60.6064H69.697V63.6367H72.7273V60.6064Z" fill="#0D0100"/>
<path d="M75.7576 60.6064H72.7273V63.6367H75.7576V60.6064Z" fill="#0D0100"/>
<path d="M84.8485 60.6064H81.8182V63.6367H84.8485V60.6064Z" fill="#0D0100"/>
<path d="M93.9394 60.6064H90.9091V63.6367H93.9394V60.6064Z" fill="#0D0100"/>
<path d="M9.09091 63.6367H6.06061V66.667H9.09091V63.6367Z" fill="#0D0100"/>
<path d="M12.1212 63.6367H9.09091V66.667H12.1212V63.6367Z" fill="#0D0100"/>
<path d="M21.2121 63.6367H18.1818V66.667H21.2121V63.6367Z" fill="#0D0100"/>
<path d="M24.2424 63.6367H21.2121V66.667H24.2424V63.6367Z" fill="#0D0100"/>
<path d="M30.303 63.6367H27.2727V66.667H30.303V63.6367Z" fill="#0D0100"/>
<path d="M33.3333 63.6367H30.303V66.667H33.3333V63.6367Z" fill="#0D0100"/>
<path d="M36.3636 63.6367H33.3333V66.667H36.3636V63.6367Z" fill="#0D0100"/>
<path d="M39.394 63.6367H36.3636V66.667H39.394V63.6367Z" fill="#0D0100"/>
<path d="M42.4243 63.6367H39.394V66.667H42.4243V63.6367Z" fill="#0D0100"/>
<path d="M48.4849 63.6367H45.4546V66.667H48.4849V63.6367Z" fill="#0D0100"/>
<path d="M54.5455 63.6367H51.5152V66.667H54.5455V63.6367Z" fill="#0D0100"/>
<path d="M57.5758 63.6367H54.5455V66.667H57.5758V63.6367Z" fill="#0D0100"/>
<path d="M66.6667 63.6367H63.6364V66.667H66.6667V63.6367Z" fill="#0D0100"/>
<path d="M72.7273 63.6367H69.697V66.667H72.7273V63.6367Z" fill="#0D0100"/>
<path d="M75.7576 63.6367H72.7273V66.667H75.7576V63.6367Z" fill="#0D0100"/>
<path d="M78.7879 63.6367H75.7576V66.667H78.7879V63.6367Z" fill="#0D0100"/>
<path d="M81.8182 63.6367H78.7879V66.667H81.8182V63.6367Z" fill="#0D0100"/>
<path d="M84.8485 63.6367H81.8182V66.667H84.8485V63.6367Z" fill="#0D0100"/>
<path d="M87.8788 63.6367H84.8485V66.667H87.8788V63.6367Z" fill="#0D0100"/>
<path d="M9.09091 66.667H6.06061V69.6973H9.09091V66.667Z" fill="#0D0100"/>
<path d="M12.1212 66.667H9.09091V69.6973H12.1212V66.667Z" fill="#0D0100"/>
<path d="M15.1515 66.667H12.1212V69.6973H15.1515V66.667Z" fill="#0D0100"/>
<path d="M24.2424 66.667H21.2121V69.6973H24.2424V66.667Z" fill="#0D0100"/>
<path d="M27.2727 66.667H24.2424V69.6973H27.2727V66.667Z" fill="#0D0100"/>
<path d="M36.3636 66.667H33.3333V69.6973H36.3636V66.667Z" fill="#0D0100"/>
<path d="M39.394 66.667H36.3636V69.6973H39.394V66.667Z" fill="#0D0100"/>
<path d="M45.4546 66.667H42.4243V69.6973H45.4546V66.667Z" fill="#0D0100"/>
<path d="M48.4849 66.667H45.4546V69.6973H48.4849V66.667Z" fill="#0D0100"/>
<path d="M60.606 66.667H57.5757V69.6973H60.606V66.667Z" fill="#0D0100"/>
<path d="M66.6667 66.667H63.6364V69.6973H66.6667V66.667Z" fill="#0D0100"/>
<path d="M69.697 66.667H66.6667V69.6973H69.697V66.667Z" fill="#0D0100"/>
<path d="M72.7273 66.667H69.697V69.6973H72.7273V66.667Z" fill="#0D0100"/>
<path d="M75.7576 66.667H72.7273V69.6973H75.7576V66.667Z" fill="#0D0100"/>
<path d="M78.7879 66.667H75.7576V69.6973H78.7879V66.667Z" fill="#0D0100"/>
<path d="M81.8182 66.667H78.7879V69.6973H81.8182V66.667Z" fill="#0D0100"/>
<path d="M84.8485 66.667H81.8182V69.6973H84.8485V66.667Z" fill="#0D0100"/>
<path d="M87.8788 66.667H84.8485V69.6973H87.8788V66.667Z" fill="#0D0100"/>
<path d="M90.9091 66.667H87.8788V69.6973H90.9091V66.667Z" fill="#0D0100"/>
<path d="M33.3333 69.6973H30.303V72.7276H33.3333V69.6973Z" fill="#0D0100"/>
<path d="M42.4243 69.6973H39.394V72.7276H42.4243V69.6973Z" fill="#0D0100"/>
<path d="M48.4849 69.6973H45.4546V72.7276H48.4849V69.6973Z" fill="#0D0100"/>
<path d="M57.5758 69.6973H54.5455V72.7276H57.5758V69.6973Z" fill="#0D0100"/>
<path d="M60.606 69.6973H57.5757V72.7276H60.606V69.6973Z" fill="#0D0100"/>
<path d="M63.6364 69.6973H60.606V72.7276H63.6364V69.6973Z" fill="#0D0100"/>
<path d="M69.697 69.6973H66.6667V72.7276H69.697V69.6973Z" fill="#0D0100"/>
<path d="M81.8182 69.6973H78.7879V72.7276H81.8182V69.6973Z" fill="#0D0100"/>
<path d="M84.8485 69.6973H81.8182V72.7276H84.8485V69.6973Z" fill="#0D0100"/>
<path d="M33.3333 72.7275H30.303V75.7578H33.3333V72.7275Z" fill="#0D0100"/>
<path d="M48.4849 72.7275H45.4546V75.7578H48.4849V72.7275Z" fill="#0D0100"/>
<path d="M54.5455 72.7275H51.5152V75.7578H54.5455V72.7275Z" fill="#0D0100"/>
<path d="M57.5758 72.7275H54.5455V75.7578H57.5758V72.7275Z" fill="#0D0100"/>
<path d="M66.6667 72.7275H63.6364V75.7578H66.6667V72.7275Z" fill="#0D0100"/>
<path d="M69.697 72.7275H66.6667V75.7578H69.697V72.7275Z" fill="#0D0100"/>
<path d="M75.7576 72.7275H72.7273V75.7578H75.7576V72.7275Z" fill="#0D0100"/>
<path d="M81.8182 72.7275H78.7879V75.7578H81.8182V72.7275Z" fill="#0D0100"/>
<path d="M84.8485 72.7275H81.8182V75.7578H84.8485V72.7275Z" fill="#0D0100"/>
<path d="M33.3333 75.7578H30.303V78.7881H33.3333V75.7578Z" fill="#0D0100"/>
<path d="M36.3636 75.7578H33.3333V78.7881H36.3636V75.7578Z" fill="#0D0100"/>
<path d="M39.394 75.7578H36.3636V78.7881H39.394V75.7578Z" fill="#0D0100"/>
<path d="M45.4546 75.7578H42.4243V78.7881H45.4546V75.7578Z" fill="#0D0100"/>
<path d="M48.4849 75.7578H45.4546V78.7881H48.4849V75.7578Z" fill="#0D0100"/>
<path d="M57.5758 75.7578H54.5455V78.7881H57.5758V75.7578Z" fill="#0D0100"/>
<path d="M60.606 75.7578H57.5757V78.7881H60.606V75.7578Z" fill="#0D0100"/>
<path d="M66.6667 75.7578H63.6364V78.7881H66.6667V75.7578Z" fill="#0D0100"/>
<path d="M69.697 75.7578H66.6667V78.7881H69.697V75.7578Z" fill="#0D0100"/>
<path d="M81.8182 75.7578H78.7879V78.7881H81.8182V75.7578Z" fill="#0D0100"/>
<path d="M90.9091 75.7578H87.8788V78.7881H90.9091V75.7578Z" fill="#0D0100"/>
<path d="M93.9394 75.7578H90.9091V78.7881H93.9394V75.7578Z" fill="#0D0100"/>
<path d="M33.3333 78.7881H30.303V81.8184H33.3333V78.7881Z" fill="#0D0100"/>
<path d="M42.4243 78.7881H39.394V81.8184H42.4243V78.7881Z" fill="#0D0100"/>
<path d="M45.4546 78.7881H42.4243V81.8184H45.4546V78.7881Z" fill="#0D0100"/>
<path d="M48.4849 78.7881H45.4546V81.8184H48.4849V78.7881Z" fill="#0D0100"/>
<path d="M54.5455 78.7881H51.5152V81.8184H54.5455V78.7881Z" fill="#0D0100"/>
<path d="M57.5758 78.7881H54.5455V81.8184H57.5758V78.7881Z" fill="#0D0100"/>
<path d="M66.6667 78.7881H63.6364V81.8184H66.6667V78.7881Z" fill="#0D0100"/>
<path d="M69.697 78.7881H66.6667V81.8184H69.697V78.7881Z" fill="#0D0100"/>
<path d="M72.7273 78.7881H69.697V81.8184H72.7273V78.7881Z" fill="#0D0100"/>
<path d="M75.7576 78.7881H72.7273V81.8184H75.7576V78.7881Z" fill="#0D0100"/>
<path d="M78.7879 78.7881H75.7576V81.8184H78.7879V78.7881Z" fill="#0D0100"/>
<path d="M81.8182 78.7881H78.7879V81.8184H81.8182V78.7881Z" fill="#0D0100"/>
<path d="M84.8485 78.7881H81.8182V81.8184H84.8485V78.7881Z" fill="#0D0100"/>
<path d="M33.3333 81.8184H30.303V84.8487H33.3333V81.8184Z" fill="#0D0100"/>
<path d="M45.4546 81.8184H42.4243V84.8487H45.4546V81.8184Z" fill="#0D0100"/>
<path d="M48.4849 81.8184H45.4546V84.8487H48.4849V81.8184Z" fill="#0D0100"/>
<path d="M51.5152 81.8184H48.4849V84.8487H51.5152V81.8184Z" fill="#0D0100"/>
<path d="M57.5758 81.8184H54.5455V84.8487H57.5758V81.8184Z" fill="#0D0100"/>
<path d="M60.606 81.8184H57.5757V84.8487H60.606V81.8184Z" fill="#0D0100"/>
<path d="M63.6364 81.8184H60.606V84.8487H63.6364V81.8184Z" fill="#0D0100"/>
<path d="M66.6667 81.8184H63.6364V84.8487H66.6667V81.8184Z" fill="#0D0100"/>
<path d="M69.697 81.8184H66.6667V84.8487H69.697V81.8184Z" fill="#0D0100"/>
<path d="M72.7273 81.8184H69.697V84.8487H72.7273V81.8184Z" fill="#0D0100"/>
<path d="M78.7879 81.8184H75.7576V84.8487H78.7879V81.8184Z" fill="#0D0100"/>
<path d="M90.9091 81.8184H87.8788V84.8487H90.9091V81.8184Z" fill="#0D0100"/>
<path d="M39.394 84.8486H36.3636V87.8789H39.394V84.8486Z" fill="#0D0100"/>
<path d="M48.4849 84.8486H45.4546V87.8789H48.4849V84.8486Z" fill="#0D0100"/>
<path d="M57.5758 84.8486H54.5455V87.8789H57.5758V84.8486Z" fill="#0D0100"/>
<path d="M72.7273 84.8486H69.697V87.8789H72.7273V84.8486Z" fill="#0D0100"/>
<path d="M78.7879 84.8486H75.7576V87.8789H78.7879V84.8486Z" fill="#0D0100"/>
<path d="M81.8182 84.8486H78.7879V87.8789H81.8182V84.8486Z" fill="#0D0100"/>
<path d="M87.8788 84.8486H84.8485V87.8789H87.8788V84.8486Z" fill="#0D0100"/>
<path d="M90.9091 84.8486H87.8788V87.8789H90.9091V84.8486Z" fill="#0D0100"/>
<path d="M93.9394 84.8486H90.9091V87.8789H93.9394V84.8486Z" fill="#0D0100"/>
<path d="M42.4243 87.8789H39.394V90.9092H42.4243V87.8789Z" fill="#0D0100"/>
<path d="M48.4849 87.8789H45.4546V90.9092H48.4849V87.8789Z" fill="#0D0100"/>
<path d="M54.5455 87.8789H51.5152V90.9092H54.5455V87.8789Z" fill="#0D0100"/>
<path d="M72.7273 87.8789H69.697V90.9092H72.7273V87.8789Z" fill="#0D0100"/>
<path d="M78.7879 87.8789H75.7576V90.9092H78.7879V87.8789Z" fill="#0D0100"/>
<path d="M84.8485 87.8789H81.8182V90.9092H84.8485V87.8789Z" fill="#0D0100"/>
<path d="M87.8788 87.8789H84.8485V90.9092H87.8788V87.8789Z" fill="#0D0100"/>
<path d="M93.9394 87.8789H90.9091V90.9092H93.9394V87.8789Z" fill="#0D0100"/>
<path d="M33.3333 90.9092H30.303V93.9395H33.3333V90.9092Z" fill="#0D0100"/>
<path d="M42.4243 90.9092H39.394V93.9395H42.4243V90.9092Z" fill="#0D0100"/>
<path d="M45.4546 90.9092H42.4243V93.9395H45.4546V90.9092Z" fill="#0D0100"/>
<path d="M60.606 90.9092H57.5757V93.9395H60.606V90.9092Z" fill="#0D0100"/>
<path d="M63.6364 90.9092H60.606V93.9395H63.6364V90.9092Z" fill="#0D0100"/>
<path d="M66.6667 90.9092H63.6364V93.9395H66.6667V90.9092Z" fill="#0D0100"/>
<path d="M69.697 90.9092H66.6667V93.9395H69.697V90.9092Z" fill="#0D0100"/>
<path d="M75.7576 90.9092H72.7273V93.9395H75.7576V90.9092Z" fill="#0D0100"/>
<path d="M81.8182 90.9092H78.7879V93.9395H81.8182V90.9092Z" fill="#0D0100"/>
<path d="M84.8485 90.9092H81.8182V93.9395H84.8485V90.9092Z" fill="#0D0100"/>
<path d="M24.0909 6.06055H9.24243H6.06061V9.24236V24.0908V27.2727H9.24243H24.0909H27.2727V24.0908V9.24236V6.06055H24.0909ZM24.0909 24.0908H9.24243V9.24236H24.0909V24.0908Z" fill="#0D0100"/>
<path d="M90.7576 6.06055H75.9091H72.7273V9.24236V24.0908V27.2727H75.9091H90.7576H93.9394V24.0908V9.24236V6.06055H90.7576ZM90.7576 24.0908H75.9091V9.24236H90.7576V24.0908Z" fill="#0D0100"/>
<path d="M24.0909 72.7275H9.24243H6.06061V75.9094V90.7578V93.9397H9.24243H24.0909H27.2727V90.7578V75.9094V72.7275H24.0909ZM24.0909 90.7578H9.24243V75.9094H24.0909V90.7578Z" fill="#0D0100"/>
<path d="M21.2121 12.1211H12.1212V21.212H21.2121V12.1211Z" fill="#0D0100"/>
<path d="M87.8788 12.1211H78.7879V21.212H87.8788V12.1211Z" fill="#0D0100"/>
<path d="M21.2121 78.7881H12.1212V87.879H21.2121V78.7881Z" fill="#0D0100"/>
</g>
<defs>
<clipPath id="clip0_174_3053">
<rect width="100" height="100" fill="white"/>
</clipPath>
</defs>
</svg>
