<svg width="40" height="40" viewBox="0 0 40 40" fill="none" xmlns="http://www.w3.org/2000/svg">
<g clip-path="url(#clip0_174_4336)">
<circle cx="20" cy="20" r="19" fill="#CD5700" stroke="white" stroke-width="2"/>
<path d="M20.6269 6.02363C22.1835 6 23.7312 6.014 25.2771 6C25.3708 7.78595 26.0255 9.60517 27.3583 10.8679C28.6883 12.1621 30.5696 12.7545 32.4001 12.9549V17.653C30.6847 17.5979 28.9612 17.2478 27.4046 16.5233C26.7267 16.2223 26.0951 15.8347 25.4769 15.4382C25.4689 18.8474 25.4912 22.2523 25.4546 25.6474C25.3618 27.2785 24.8132 28.9017 23.8463 30.2458C22.2905 32.4833 19.5903 33.942 16.8169 33.9875C15.1158 34.0829 13.4164 33.6278 11.9669 32.7895C9.56461 31.4 7.87418 28.8562 7.62796 26.1261C7.59941 25.5424 7.58965 24.9596 7.61369 24.39C7.82782 22.17 8.94732 20.0462 10.685 18.6016C12.6547 16.9188 15.4138 16.1173 17.9971 16.5916C18.0212 18.3198 17.9508 20.0462 17.9508 21.7745C16.7706 21.3999 15.3915 21.5049 14.3603 22.2076C13.6073 22.6863 13.0355 23.4195 12.7376 24.2491C12.4914 24.8406 12.5619 25.4978 12.5762 26.1261C12.8589 28.0406 14.7358 29.6499 16.7394 29.4757C18.0676 29.4617 19.3406 28.7057 20.0328 27.5987C20.2566 27.2111 20.5073 26.8147 20.5207 26.3588C20.6376 24.2718 20.5912 22.1936 20.6055 20.1066C20.6153 15.4032 20.5912 10.713 20.6278 6.02453L20.6269 6.02363Z" fill="white"/>
</g>
<defs>
<clipPath id="clip0_174_4336">
<rect width="40" height="40" fill="white"/>
</clipPath>
</defs>
</svg>
