<svg width="100" height="100" viewBox="0 0 100 100" fill="none" xmlns="http://www.w3.org/2000/svg">
<g clip-path="url(#clip0_174_4358)">
<circle cx="50" cy="50" r="49" fill="#CD5700" stroke="white" stroke-width="2"/>
<path d="M51.5669 15.0591C55.4585 15 59.3277 15.035 63.1926 15C63.4266 19.4649 65.0636 24.0129 68.3954 27.1698C71.7205 30.4052 76.4238 31.8862 81 32.3871V44.1324C76.7114 43.9947 72.4028 43.1195 68.5113 41.3082C66.8165 40.5557 65.2375 39.5866 63.6921 38.5956C63.672 47.1185 63.7278 55.6306 63.6363 64.1186C63.4044 68.1962 62.0328 72.2542 59.6155 75.6145C55.7261 81.2082 48.9756 84.8549 42.0421 84.9687C37.7893 85.2072 33.5409 84.0695 29.9171 81.9739C23.9113 78.4999 19.6852 72.1405 19.0697 65.3151C18.9983 63.8561 18.9739 62.3991 19.034 60.975C19.5693 55.425 22.368 50.1156 26.7123 46.5039C31.6364 42.297 38.5342 40.2932 44.9925 41.4789C45.0528 45.7994 44.8766 50.1156 44.8766 54.4362C41.9262 53.4998 38.4784 53.7623 35.9004 55.5191C34.0181 56.7156 32.5886 58.5488 31.8438 60.6228C31.2284 62.1016 31.4045 63.7445 31.4402 65.3151C32.1471 70.1016 36.8393 74.1246 41.8481 73.6894C45.1688 73.6544 48.3512 71.7642 50.0816 68.9968C50.6414 68.0278 51.2681 67.0368 51.3016 65.8971C51.5938 60.6796 51.4777 55.4841 51.5134 50.2665C51.5379 38.5081 51.4777 26.7825 51.5692 15.0613L51.5669 15.0591Z" fill="white"/>
</g>
<defs>
<clipPath id="clip0_174_4358">
<rect width="100" height="100" fill="white"/>
</clipPath>
</defs>
</svg>
